<svg width="471" height="81" viewBox="0 0 471 81" fill="none" xmlns="http://www.w3.org/2000/svg">
<rect width="471" height="81" fill="#4081EC"/>
<rect width="76" height="81" fill="white"/>
<path d="M62.2822 36.36H38.5V45.33H52.8906C50.8724 51.3447 45.1944 55.68 38.5 55.68C30.1165 55.68 23.32 48.8835 23.32 40.5C23.32 32.1165 30.1165 25.32 38.5 25.32C41.8113 25.32 44.8722 26.3833 47.3672 28.1828L53.7628 21.7872C49.6028 18.3896 44.2898 16.35 38.5 16.35C25.1623 16.35 14.35 27.1623 14.35 40.5C14.35 53.8377 25.1623 64.65 38.5 64.65C51.8377 64.65 62.65 53.8377 62.65 40.5C62.65 39.0869 62.5161 37.7062 62.2822 36.36Z" fill="#F9E65C"/>
<path d="M38.5 45.33H52.8906C51.8025 48.5723 49.6449 51.3185 46.8442 53.1684L53.6545 59.2984C59.1386 54.8713 62.65 48.0969 62.65 40.5C62.65 39.0869 62.5161 37.7062 62.2822 36.36H38.5V45.33Z" fill="#78A2D2"/>
<path d="M46.8442 53.1684C44.4492 54.7506 41.5857 55.68 38.5 55.68C32.2921 55.68 26.9584 51.9519 24.6055 46.6141L16.9844 51.4641C20.9802 59.2887 29.1112 64.65 38.5 64.65C44.2408 64.65 49.5103 62.6435 53.6545 59.2984L46.8442 53.1684Z" fill="#60BE92"/>
<path d="M24.4771 34.6826C26.7596 29.1861 32.1775 25.32 38.5 25.32C41.8113 25.32 44.8721 26.3833 47.3672 28.1828L53.7628 21.7872C49.6028 18.3896 44.2898 16.35 38.5 16.35C28.9973 16.35 20.7801 21.841 16.8381 29.8216L24.4771 34.6826Z" fill="#F15B6C"/>
<path d="M53.335 59.82C53.2529 59.82 53.1701 59.791 53.1039 59.7317L50.3438 57.2477C50.2024 57.12 50.1907 56.902 50.3183 56.7605C50.4473 56.6191 50.6647 56.608 50.8061 56.735L53.5662 59.219C53.7076 59.3467 53.7193 59.5647 53.5917 59.7061C53.5227 59.7814 53.4295 59.82 53.335 59.82Z" fill="#1F212B"/>
<path d="M49.195 56.094C49.1129 56.094 49.0301 56.065 48.9638 56.0057L47.7377 54.9017C47.5963 54.774 47.5845 54.556 47.7122 54.4145C47.8412 54.2731 48.0586 54.262 48.2 54.389L49.4261 55.493C49.5676 55.6207 49.5793 55.8387 49.4517 55.9801C49.3827 56.0554 49.2895 56.094 49.195 56.094Z" fill="#1F212B"/>
<path d="M23.271 47.4C23.1572 47.4 23.0461 47.3434 22.9798 47.2406C22.8777 47.0798 22.9253 46.8666 23.0854 46.7645L24.1694 46.0745C24.3288 45.9738 24.5427 46.0193 24.6455 46.1801C24.7476 46.3408 24.7 46.5541 24.5399 46.6562L23.4559 47.3462C23.3987 47.3827 23.3345 47.4 23.271 47.4Z" fill="#1F212B"/>
<path d="M20.215 49.3444C20.1012 49.3444 19.9901 49.2878 19.9238 49.185C19.8217 49.0243 19.8693 48.8111 20.0294 48.7089L21.4094 47.8306C21.5688 47.7298 21.7827 47.7747 21.8855 47.9361C21.9876 48.0969 21.94 48.3101 21.7799 48.4122L20.3999 49.2906C20.3433 49.3272 20.2792 49.3444 20.215 49.3444Z" fill="#1F212B"/>
<path d="M16.765 51.54C16.6512 51.54 16.5401 51.4834 16.4738 51.3806C16.3717 51.2198 16.4193 51.0066 16.5794 50.9045L18.6494 49.5873C18.8081 49.4866 19.0227 49.5321 19.1255 49.6929C19.2276 49.8536 19.18 50.0668 19.0199 50.169L16.9499 51.4862C16.8933 51.5227 16.8292 51.54 16.765 51.54Z" fill="#1F212B"/>
<path d="M20.905 32.3456C20.8408 32.3456 20.7767 32.3283 20.7194 32.2918L17.2694 30.0962C17.1093 29.9941 17.061 29.7802 17.1638 29.6201C17.2666 29.4593 17.4812 29.4138 17.6399 29.5145L21.0899 31.7101C21.25 31.8122 21.2983 32.0261 21.1955 32.1862C21.1299 32.289 21.0189 32.3456 20.905 32.3456Z" fill="#1F212B"/>
<path d="M22.975 33.6628C22.9108 33.6628 22.8467 33.6455 22.7894 33.609L22.0994 33.1701C21.9393 33.068 21.891 32.8541 21.9938 32.694C22.0973 32.5333 22.3112 32.4877 22.4699 32.5885L23.1599 33.0273C23.32 33.1294 23.3683 33.3433 23.2655 33.5034C23.1999 33.6062 23.0889 33.6628 22.975 33.6628Z" fill="#1F212B"/>
<path d="M91.11 40.53C91.11 38.49 91.58 36.66 92.52 35.04C93.48 33.42 94.77 32.16 96.39 31.26C98.03 30.34 99.82 29.88 101.76 29.88C103.98 29.88 105.95 30.43 107.67 31.53C109.41 32.61 110.67 34.15 111.45 36.15H107.34C106.8 35.05 106.05 34.23 105.09 33.69C104.13 33.15 103.02 32.88 101.76 32.88C100.38 32.88 99.15 33.19 98.07 33.81C96.99 34.43 96.14 35.32 95.52 36.48C94.92 37.64 94.62 38.99 94.62 40.53C94.62 42.07 94.92 43.42 95.52 44.58C96.14 45.74 96.99 46.64 98.07 47.28C99.15 47.9 100.38 48.21 101.76 48.21C103.02 48.21 104.13 47.94 105.09 47.4C106.05 46.86 106.8 46.04 107.34 44.94H111.45C110.67 46.94 109.41 48.48 107.67 49.56C105.95 50.64 103.98 51.18 101.76 51.18C99.8 51.18 98.01 50.73 96.39 49.83C94.77 48.91 93.48 47.64 92.52 46.02C91.58 44.4 91.11 42.57 91.11 40.53ZM124.963 51.21C123.023 51.21 121.233 50.76 119.593 49.86C117.973 48.94 116.683 47.67 115.723 46.05C114.783 44.41 114.313 42.57 114.313 40.53C114.313 38.49 114.783 36.66 115.723 35.04C116.683 33.42 117.973 32.16 119.593 31.26C121.233 30.34 123.023 29.88 124.963 29.88C126.923 29.88 128.713 30.34 130.333 31.26C131.973 32.16 133.263 33.42 134.203 35.04C135.143 36.66 135.613 38.49 135.613 40.53C135.613 42.57 135.143 44.41 134.203 46.05C133.263 47.67 131.973 48.94 130.333 49.86C128.713 50.76 126.923 51.21 124.963 51.21ZM124.963 48.24C126.343 48.24 127.573 47.93 128.653 47.31C129.733 46.67 130.573 45.77 131.173 44.61C131.793 43.43 132.103 42.07 132.103 40.53C132.103 38.99 131.793 37.64 131.173 36.48C130.573 35.32 129.733 34.43 128.653 33.81C127.573 33.19 126.343 32.88 124.963 32.88C123.583 32.88 122.353 33.19 121.273 33.81C120.193 34.43 119.343 35.32 118.723 36.48C118.123 37.64 117.823 38.99 117.823 40.53C117.823 42.07 118.123 43.43 118.723 44.61C119.343 45.77 120.193 46.67 121.273 47.31C122.353 47.93 123.583 48.24 124.963 48.24ZM156.109 51H152.689L142.399 35.43V51H138.979V30.12H142.399L152.689 45.66V30.12H156.109V51ZM174.07 30.15V32.94H168.52V51H165.1V32.94H159.52V30.15H174.07ZM180.953 30.15V51H177.533V30.15H180.953ZM202.573 51H199.153L188.863 35.43V51H185.443V30.12H188.863L199.153 45.66V30.12H202.573V51ZM210.454 30.15V43.44C210.454 45.02 210.864 46.21 211.684 47.01C212.524 47.81 213.684 48.21 215.164 48.21C216.664 48.21 217.824 47.81 218.644 47.01C219.484 46.21 219.904 45.02 219.904 43.44V30.15H223.324V43.38C223.324 45.08 222.954 46.52 222.214 47.7C221.474 48.88 220.484 49.76 219.244 50.34C218.004 50.92 216.634 51.21 215.134 51.21C213.634 51.21 212.264 50.92 211.024 50.34C209.804 49.76 208.834 48.88 208.114 47.7C207.394 46.52 207.034 45.08 207.034 43.38V30.15H210.454ZM231.197 32.91V39.03H238.397V41.82H231.197V48.21H239.297V51H227.777V30.12H239.297V32.91H231.197ZM278.453 30.15L272.273 51H268.403L264.023 35.22L259.373 51L255.533 51.03L249.623 30.15H253.253L257.573 47.13L262.253 30.15H266.093L270.443 47.04L274.793 30.15H278.453ZM284.693 30.15V51H281.273V30.15H284.693ZM302.654 30.15V32.94H297.104V51H293.684V32.94H288.104V30.15H302.654ZM322.767 30.15V51H319.347V41.88H309.537V51H306.117V30.15H309.537V39.09H319.347V30.15H322.767ZM350.153 36.15C349.613 35.11 348.863 34.33 347.903 33.81C346.943 33.27 345.833 33 344.573 33C343.193 33 341.963 33.31 340.883 33.93C339.803 34.55 338.953 35.43 338.333 36.57C337.733 37.71 337.433 39.03 337.433 40.53C337.433 42.03 337.733 43.36 338.333 44.52C338.953 45.66 339.803 46.54 340.883 47.16C341.963 47.78 343.193 48.09 344.573 48.09C346.433 48.09 347.943 47.57 349.103 46.53C350.263 45.49 350.973 44.08 351.233 42.3H343.403V39.57H354.893V42.24C354.673 43.86 354.093 45.35 353.153 46.71C352.233 48.07 351.023 49.16 349.523 49.98C348.043 50.78 346.393 51.18 344.573 51.18C342.613 51.18 340.823 50.73 339.203 49.83C337.583 48.91 336.293 47.64 335.333 46.02C334.393 44.4 333.923 42.57 333.923 40.53C333.923 38.49 334.393 36.66 335.333 35.04C336.293 33.42 337.583 32.16 339.203 31.26C340.843 30.34 342.633 29.88 344.573 29.88C346.793 29.88 348.763 30.43 350.483 31.53C352.223 32.61 353.483 34.15 354.263 36.15H350.153ZM367.776 51.21C365.836 51.21 364.046 50.76 362.406 49.86C360.786 48.94 359.496 47.67 358.536 46.05C357.596 44.41 357.126 42.57 357.126 40.53C357.126 38.49 357.596 36.66 358.536 35.04C359.496 33.42 360.786 32.16 362.406 31.26C364.046 30.34 365.836 29.88 367.776 29.88C369.736 29.88 371.526 30.34 373.146 31.26C374.786 32.16 376.076 33.42 377.016 35.04C377.956 36.66 378.426 38.49 378.426 40.53C378.426 42.57 377.956 44.41 377.016 46.05C376.076 47.67 374.786 48.94 373.146 49.86C371.526 50.76 369.736 51.21 367.776 51.21ZM367.776 48.24C369.156 48.24 370.386 47.93 371.466 47.31C372.546 46.67 373.386 45.77 373.986 44.61C374.606 43.43 374.916 42.07 374.916 40.53C374.916 38.99 374.606 37.64 373.986 36.48C373.386 35.32 372.546 34.43 371.466 33.81C370.386 33.19 369.156 32.88 367.776 32.88C366.396 32.88 365.166 33.19 364.086 33.81C363.006 34.43 362.156 35.32 361.536 36.48C360.936 37.64 360.636 38.99 360.636 40.53C360.636 42.07 360.936 43.43 361.536 44.61C362.156 45.77 363.006 46.67 364.086 47.31C365.166 47.93 366.396 48.24 367.776 48.24ZM391.301 51.21C389.361 51.21 387.571 50.76 385.931 49.86C384.311 48.94 383.021 47.67 382.061 46.05C381.121 44.41 380.651 42.57 380.651 40.53C380.651 38.49 381.121 36.66 382.061 35.04C383.021 33.42 384.311 32.16 385.931 31.26C387.571 30.34 389.361 29.88 391.301 29.88C393.261 29.88 395.051 30.34 396.671 31.26C398.311 32.16 399.601 33.42 400.541 35.04C401.481 36.66 401.951 38.49 401.951 40.53C401.951 42.57 401.481 44.41 400.541 46.05C399.601 47.67 398.311 48.94 396.671 49.86C395.051 50.76 393.261 51.21 391.301 51.21ZM391.301 48.24C392.681 48.24 393.911 47.93 394.991 47.31C396.071 46.67 396.911 45.77 397.511 44.61C398.131 43.43 398.441 42.07 398.441 40.53C398.441 38.99 398.131 37.64 397.511 36.48C396.911 35.32 396.071 34.43 394.991 33.81C393.911 33.19 392.681 32.88 391.301 32.88C389.921 32.88 388.691 33.19 387.611 33.81C386.531 34.43 385.681 35.32 385.061 36.48C384.461 37.64 384.161 38.99 384.161 40.53C384.161 42.07 384.461 43.43 385.061 44.61C385.681 45.77 386.531 46.67 387.611 47.31C388.691 47.93 389.921 48.24 391.301 48.24ZM420.406 36.15C419.866 35.11 419.116 34.33 418.156 33.81C417.196 33.27 416.086 33 414.826 33C413.446 33 412.216 33.31 411.136 33.93C410.056 34.55 409.206 35.43 408.586 36.57C407.986 37.71 407.686 39.03 407.686 40.53C407.686 42.03 407.986 43.36 408.586 44.52C409.206 45.66 410.056 46.54 411.136 47.16C412.216 47.78 413.446 48.09 414.826 48.09C416.686 48.09 418.196 47.57 419.356 46.53C420.516 45.49 421.226 44.08 421.486 42.3H413.656V39.57H425.146V42.24C424.926 43.86 424.346 45.35 423.406 46.71C422.486 48.07 421.276 49.16 419.776 49.98C418.296 50.78 416.646 51.18 414.826 51.18C412.866 51.18 411.076 50.73 409.456 49.83C407.836 48.91 406.546 47.64 405.586 46.02C404.646 44.4 404.176 42.57 404.176 40.53C404.176 38.49 404.646 36.66 405.586 35.04C406.546 33.42 407.836 32.16 409.456 31.26C411.096 30.34 412.886 29.88 414.826 29.88C417.046 29.88 419.016 30.43 420.736 31.53C422.476 32.61 423.736 34.15 424.516 36.15H420.406ZM431.94 48.24H438.99V51H428.52V30.15H431.94V48.24ZM445.27 32.91V39.03H452.47V41.82H445.27V48.21H453.37V51H441.85V30.12H453.37V32.91H445.27Z" fill="white"/>
</svg>
