<svg width="540" height="540" viewBox="0 0 540 540" fill="none" xmlns="http://www.w3.org/2000/svg">
<path fill-rule="evenodd" clip-rule="evenodd" d="M540 270C540 419.117 419.117 540 270 540C120.883 540 0 419.117 0 270C0 120.883 120.883 0 270 0C419.117 0 540 120.883 540 270ZM270 520C408.071 520 520 408.071 520 270C520 131.929 408.071 20 270 20C131.929 20 20 131.929 20 270C20 408.071 131.929 520 270 520Z" fill="#D8D8D8"/>
<path fill-rule="evenodd" clip-rule="evenodd" d="M487.065 290.5C476.825 402.237 383.717 490 270 490C156.283 490 63.1748 402.237 52.9348 290.5H73.0274C83.1903 391.327 167.499 470 270 470C372.501 470 456.81 391.327 466.973 290.5L487.065 290.5C487.065 290.5 487.065 290.5 487.065 290.5ZM486.55 244.5C474.034 135.156 382.015 50 270 50C157.985 50 65.9662 135.156 53.45 244.5H73.5942C85.993 146.084 169.2 70 270 70C370.8 70 454.007 146.084 466.406 244.5H486.55Z" fill="#D8D8D8"/>
<path fill-rule="evenodd" clip-rule="evenodd" d="M384.671 270C384.671 329.631 342.57 380.476 286.171 388.806V368.522C330.763 360.358 364.671 319.355 364.671 270C364.671 220.645 330.763 179.642 286.171 171.478V151.194C342.57 159.524 384.671 210.369 384.671 270ZM253.5 368.522C208.908 360.358 175 319.355 175 270C175 220.645 208.908 179.642 253.5 171.478V151.194C197.101 159.524 155 210.369 155 270C155 329.631 197.101 380.476 253.5 388.806V368.522Z" fill="#D8D8D8"/>
<path fill-rule="evenodd" clip-rule="evenodd" d="M337.836 270C337.836 307.647 308.638 340 270.418 340C232.198 340 203 307.647 203 270C203 232.353 232.198 200 270.418 200C308.638 200 337.836 232.353 337.836 270ZM270.418 320C296.606 320 317.836 297.614 317.836 270C317.836 242.386 296.606 220 270.418 220C244.23 220 223 242.386 223 270C223 297.614 244.23 320 270.418 320Z" fill="#D8D8D8"/>
</svg>
